<?xml version="1.0" standalone="no"?>
<!DOCTYPE svg PUBLIC "-//W3C//DTD SVG 20010904//EN"
 "http://www.w3.org/TR/2001/REC-SVG-20010904/DTD/svg10.dtd">
<svg version="1.0" xmlns="http://www.w3.org/2000/svg"
 width="256.000000pt" height="256.000000pt" viewBox="0 0 256.000000 256.000000"
 preserveAspectRatio="xMidYMid meet">
<metadata>
Created by potrace 1.14, written by Peter Selinger 2001-2017
</metadata>
<g transform="translate(0.000000,256.000000) scale(0.100000,-0.100000)"
fill="#000000" stroke="none">
<path d="M379 2231 c-45 -21 -61 -56 -61 -130 0 -64 8 -179 17 -231 2 -14 7
-43 10 -65 3 -22 10 -53 15 -70 5 -16 12 -43 15 -60 7 -36 10 -45 19 -67 4 -9
9 -22 10 -30 3 -14 3 -15 32 -93 10 -27 19 -52 19 -55 6 -28 105 -210 163
-300 91 -139 270 -333 392 -424 30 -22 57 -44 60 -47 21 -28 343 -203 410
-224 3 -1 41 -13 86 -27 106 -35 191 -57 245 -63 24 -3 51 -8 59 -10 65 -19
276 -24 311 -7 59 29 63 46 64 277 1 189 -1 213 -18 245 -29 53 -38 57 -157
64 -41 3 -88 7 -105 10 -16 3 -43 8 -60 10 -36 6 -53 10 -127 30 -87 23 -103
14 -246 -128 l-125 -125 -46 26 c-61 36 -122 73 -135 84 -6 5 -33 26 -61 46
-150 111 -294 274 -407 460 l-47 78 124 125 c68 69 129 138 135 154 7 18 7 40
1 62 -5 19 -7 34 -5 34 3 0 0 8 -5 19 -9 16 -16 45 -27 106 -12 73 -15 99 -20
175 -6 90 -17 119 -60 147 -22 14 -56 17 -237 17 -157 1 -217 -2 -238 -13z"/>
</g>
</svg>
